<svg xmlns="http://www.w3.org/2000/svg" xmlns:xlink="http://www.w3.org/1999/xlink" fill="none" version="1.1" width="12.300000011920929" height="13.300000011920929" viewBox="0 0 12.300000011920929 13.300000011920929"><g><path d="M9.155680005960464,3.1618000059604645C9.155680005960464,4.825170005960464,7.807310005960464,6.1736000059604645,6.144020005960464,6.1736000059604645C4.4807300059604644,6.1736000059604645,3.1323600059604644,4.825170005960464,3.1323600059604644,3.1618000059604645C3.1323600059604644,1.4984300059604645,4.4807300059604644,0.15000000596046448,6.144020005960464,0.15000000596046448C7.807310005960464,0.15000000596046448,9.155680005960464,1.4984300059604645,9.155680005960464,3.1618000059604645ZM6.144020005960464,1.2335000059604644C5.0790300059604645,1.2335000059604644,4.215680005960465,2.0968300059604648,4.215680005960465,3.1618000059604645C4.215680005960465,4.226770005960464,5.0790300059604645,5.090100005960465,6.144020005960464,5.090100005960465C7.209010005960464,5.090100005960465,8.072360005960466,4.226770005960464,8.072360005960466,3.1618000059604645C8.072360005960466,2.0968300059604648,7.209010005960464,1.2335000059604644,6.144020005960464,1.2335000059604644ZM1.1500000059604645,13.150000005960464C0.5977200059604645,13.150000005960464,0.15000000596046448,12.702300005960465,0.15000000596046448,12.150000005960464L0.15000000596046448,10.983300005960464C0.15000000596046448,8.590100005960464,2.0901000059604646,6.6500000059604645,4.483330005960465,6.6500000059604645L7.816670005960464,6.6500000059604645C10.209900005960465,6.6500000059604645,12.150000005960464,8.590100005960464,12.150000005960464,10.983300005960464L12.150000005960464,12.150000005960464C12.150000005960464,12.702300005960465,11.702300005960465,13.150000005960464,11.150000005960464,13.150000005960464L1.1500000059604645,13.150000005960464ZM1.2333300059604644,12.066700005960465L11.066700005960465,12.066700005960465L11.066700005960465,10.983300005960464C11.066700005960465,10.085860005960464,10.749400005960464,9.319840005960465,10.114760005960465,8.685240005960464C9.480160005960464,8.050630005960464,8.714130005960465,7.733330005960465,7.816670005960464,7.733330005960465L4.483330005960465,7.733330005960465C3.5858700059604645,7.733330005960465,2.8198400059604647,8.050630005960464,2.1852400059604644,8.685240005960464C1.5506300059604645,9.319840005960465,1.2333300059604644,10.085860005960464,1.2333300059604644,10.983300005960464L1.2333300059604644,12.066700005960465Z" fill="#333333" fill-opacity="1"/><path d="M8.379650005960464,0.9260730059604645Q7.453620005960464,5.960464483090178e-9,6.144020005960464,5.960464483090178e-9Q4.834420005960465,5.960464483090178e-9,3.9083900059604644,0.9260730059604645Q2.9823600059604645,1.8521400059604645,2.9823600059604645,3.1618000059604645Q2.9823600059604645,4.471460005960465,3.9083900059604644,5.397530005960465Q4.834420005960465,6.323600005960465,6.144020005960464,6.323600005960465Q7.453620005960464,6.323600005960465,8.379650005960464,5.397530005960465Q9.305680005960465,4.471460005960465,9.305680005960465,3.1618000059604645Q9.305680005960465,1.8521400059604645,8.379650005960464,0.9260730059604645ZM4.120520005960465,1.1382000059604644Q4.958690005960465,0.3000000059604645,6.144020005960464,0.3000000059604645Q7.329350005960465,0.3000000059604645,8.167520005960464,1.1382000059604644Q9.005680005960464,1.9764000059604645,9.005680005960464,3.1618000059604645Q9.005680005960464,4.3471900059604645,8.167520005960464,5.185400005960465Q7.329360005960464,6.023600005960464,6.144020005960464,6.023600005960464Q4.958690005960465,6.023600005960464,4.120520005960465,5.185400005960465Q3.2823600059604643,4.347200005960464,3.2823600059604643,3.1618000059604645Q3.2823600059604643,1.9764000059604645,4.120520005960465,1.1382000059604644ZM7.613630005960465,4.631380005960464Q8.222360005960464,4.022660005960464,8.222360005960464,3.1618000059604645Q8.222360005960464,2.3009400059604643,7.613630005960465,1.6922200059604644Q7.004900005960464,1.0835010059604646,6.144020005960464,1.0835000059604645Q5.2831400059604645,1.0835000059604645,4.674410005960464,1.6922200059604644Q4.0656800059604645,2.3009400059604643,4.0656800059604645,3.1618000059604645Q4.0656800059604645,4.022660005960464,4.674410005960464,4.631380005960464Q5.283150005960464,5.240100005960464,6.144020005960464,5.240100005960464Q7.004890005960465,5.240100005960464,7.613630005960465,4.631380005960464ZM7.4015000059604645,1.9043500059604646Q7.922360005960464,2.4252100059604644,7.922360005960464,3.1618000059604645Q7.922360005960464,3.8984000059604647,7.4015000059604645,4.419250005960465Q6.880630005960464,4.940100005960464,6.144020005960464,4.940100005960464Q5.407410005960465,4.940100005960464,4.886540005960464,4.419250005960465Q4.365680005960464,3.8983900059604646,4.365680005960464,3.1618000059604645Q4.365680005960464,2.4252100059604644,4.886540005960464,1.9043500059604646Q5.407410005960465,1.3835000059604645,6.144020005960464,1.3835000059604645Q6.880630005960464,1.3835000059604645,7.4015000059604645,1.9043500059604646ZM1.1500000059604645,13.300000005960465L11.150000005960464,13.300000005960465Q11.626400005960464,13.300000005960465,11.963200005960465,12.963200005960465Q12.300000005960465,12.626400005960464,12.300000005960465,12.150000005960464L12.300000005960465,10.983300005960464Q12.300000005960465,9.126260005960464,10.986900005960464,7.813130005960464Q9.673710005960464,6.500000005960464,7.816670005960464,6.500000005960464L4.483330005960465,6.500000005960464Q2.6262800059604645,6.500010005960465,1.3131400059604645,7.813130005960464Q5.960464483090178e-9,9.126270005960464,5.960464483090178e-9,10.983300005960464L5.960464483090178e-9,12.150000005960464Q5.960464483090178e-9,12.626400005960464,0.3368300059604645,12.963200005960465Q0.6736540059604644,13.300000005960465,1.1500000059604645,13.300000005960465ZM11.751000005960465,12.751000005960465Q11.502100005960465,13.000000005960464,11.150000005960464,13.000000005960464L1.1500000059604645,13.000000005960464Q0.7979170059604644,13.000000005960464,0.5489600059604645,12.751000005960465Q0.3000000059604645,12.502100005960465,0.3000000059604645,12.150000005960464L0.3000000059604645,10.983300005960464Q0.3000000059604645,9.250530005960464,1.5252700059604645,8.025270005960465Q2.7505400059604646,6.800000005960465,4.483330005960465,6.800000005960465L7.816670005960464,6.800000005960465Q9.549460005960464,6.799990005960464,10.774700005960465,8.025270005960465Q12.000000005960464,9.250520005960464,12.000000005960464,10.983300005960464L12.000000005960464,12.150000005960464Q12.000000005960464,12.502100005960465,11.751000005960465,12.751000005960465ZM2.0791700059604645,8.579180005960465Q1.0833310059604644,9.575000005960465,1.0833310059604644,10.983300005960464L1.0833300059604645,12.216700005960465L11.216700005960465,12.216700005960465L11.216700005960465,10.983300005960464Q11.216700005960465,9.575000005960465,10.220800005960465,8.579170005960464Q9.225000005960464,7.583330005960464,7.816670005960464,7.583330005960464L4.483330005960465,7.583330005960464Q3.0750100059604644,7.583330005960464,2.0791700059604645,8.579180005960465ZM1.3833300059604645,11.916700005960465L1.3833300059604645,10.983300005960464Q1.3833300059604645,9.699260005960465,2.2913100059604643,8.791300005960464Q3.1992700059604644,7.883330005960464,4.483330005960465,7.883330005960464L7.816670005960464,7.883330005960464Q9.100740005960464,7.883330005960464,10.008700005960465,8.791310005960465Q10.916700005960465,9.699270005960464,10.916700005960465,10.983300005960464L10.916700005960465,11.916700005960465L1.3833300059604645,11.916700005960465Z" fill-rule="evenodd" fill="#3355ff" fill-opacity="1"/></g></svg>