<?xml version="1.0" standalone="no"?><!DOCTYPE svg PUBLIC "-//W3C//DTD SVG 1.1//EN" "http://www.w3.org/Graphics/SVG/1.1/DTD/svg11.dtd"><svg t="1656916914829" class="icon" viewBox="0 0 1024 1024" version="1.1" xmlns="http://www.w3.org/2000/svg" p-id="4389" xmlns:xlink="http://www.w3.org/1999/xlink" width="32" height="32"><defs><style type="text/css">@font-face { font-family: feedback-iconfont; src: url("//at.alicdn.com/t/font_1031158_u69w8yhxdu.woff2?t=1630033759944") format("woff2"), url("//at.alicdn.com/t/font_1031158_u69w8yhxdu.woff?t=1630033759944") format("woff"), url("//at.alicdn.com/t/font_1031158_u69w8yhxdu.ttf?t=1630033759944") format("truetype"); }
</style></defs><path d="M512 923.136c-372.352 0-512-418.901333-512-418.901333S139.648 85.333333 512 85.333333s512 418.901333 512 418.901334-139.648 418.986667-512 418.901333z m0-85.333333c296.533333 0.042667 407.722667-333.568 407.722667-333.568S808.490667 170.666667 512 170.666667c-296.533333 0-407.722667 333.568-407.722667 333.568S215.509333 837.802667 512 837.802667z m75.392-570.538667a128 128 0 1 0 169.344 169.386667 256 256 0 1 1-169.344-169.344z" fill="#3D3D3D" p-id="4390"></path></svg>