<?xml version="1.0" standalone="no"?><!DOCTYPE svg PUBLIC "-//W3C//DTD SVG 1.1//EN" "http://www.w3.org/Graphics/SVG/1.1/DTD/svg11.dtd"><svg t="1666625678844" class="icon" viewBox="0 0 1024 1024" version="1.1" xmlns="http://www.w3.org/2000/svg" p-id="8521" xmlns:xlink="http://www.w3.org/1999/xlink" width="32" height="32"><path d="M690.944 628.352c52.821333 40.277333 88.32 48.682667 110.805333 38.613333 14.762667-6.656 25.386667-22.229333 31.573334-39.466666a341.461333 341.461333 0 0 0-150.613334-411.050667 341.333333 341.333333 0 1 0-170.026666 637.013333l0.256 85.333334a424.874667 424.874667 0 0 1-214.186667-57.216C94.677333 763.733333 24.746667 502.784 142.592 298.752c117.76-204.074667 378.752-274.005333 582.826667-156.16a426.752 426.752 0 0 1 188.202666 513.877333 172.202667 172.202667 0 0 1-20.096 39.466667c-14.378667 21.077333-33.066667 38.186667-56.832 48.853333-56.618667 25.429333-125.653333 8.106667-206.08-55.338666a213.333333 213.333333 0 1 1 60.330667-61.098667z m-178.858667 11.733333a128 128 0 1 0 0-256 128 128 0 0 0 0 256z" p-id="8522" fill="#4c4948"></path></svg>