<svg xmlns="http://www.w3.org/2000/svg" xmlns:xlink="http://www.w3.org/1999/xlink" fill="none" version="1.1" width="36" height="36" viewBox="0 0 36 36"><g><g><ellipse cx="18" cy="18" rx="18" ry="18" fill="#3355FF" fill-opacity="1"/></g><g><g><g><path d="M6.999948501586914,11.000116348266602C6.999948501586914,12.656966348266602,8.343098501586914,14.000116348266602,9.999948501586914,14.000116348266602L14.999948501586914,14.000116348266602L14.999948501586914,11.000116348266602L6.999948501586914,11.000116348266602Z" fill="#FFFFFF" fill-opacity="1"/></g><g><path d="M21.999948501586914,11.000116348266602C21.999948501586914,12.656966348266602,23.343098501586915,14.000116348266602,24.999948501586914,14.000116348266602L28.999948501586914,14.000116348266602L28.999948501586914,11.000116348266602L21.999948501586914,11.000116348266602Z" fill="#FFFFFF" fill-opacity="1"/></g><g><path d="M21.999948501586914,22.0001163482666C21.999948501586914,23.6569663482666,23.343098501586915,25.0001163482666,24.999948501586914,25.0001163482666L28.999948501586914,25.0001163482666L28.999948501586914,22.0001163482666L21.999948501586914,22.0001163482666Z" fill="#FFFFFF" fill-opacity="1"/></g><g transform="matrix(1,0,0,-1,0,38.0002326965332)"><path d="M6.999948501586914,19.0001163482666C6.999948501586914,20.6569663482666,8.343098501586914,22.0001163482666,9.999948501586914,22.0001163482666L14.999948501586914,22.0001163482666L14.999948501586914,19.0001163482666L6.999948501586914,19.0001163482666Z" fill="#FFFFFF" fill-opacity="1"/></g><g><path d="M6.999948501586914,25.0001163482666L9.999948501586914,25.0001163482666L9.999948501586914,16.0001163482666C8.343098501586914,16.0001163482666,6.999948501586914,17.343266348266603,6.999948501586914,19.0001163482666L6.999948501586914,25.0001163482666Z" fill="#FFFFFF" fill-opacity="1"/></g></g><g><path d="M27.999834060668945,18.0001163482666Q27.999834060668945,18.0983663482666,27.990204060668944,18.196146348266602Q27.980574060668946,18.293926348266602,27.961404060668947,18.390296348266602Q27.942234060668945,18.486666348266603,27.913714060668944,18.580686348266603Q27.885194060668944,18.6747063482666,27.847594060668946,18.765486348266602Q27.809994060668945,18.8562563482666,27.763674060668947,18.9429063482666Q27.717364060668945,19.029566348266602,27.662774060668944,19.1112563482666Q27.608184060668947,19.192956348266602,27.545854060668944,19.2689063482666Q27.483524060668945,19.344856348266603,27.414044060668946,19.414326348266602Q27.344574060668947,19.4838063482666,27.268624060668945,19.5461363482666Q27.192674060668946,19.608466348266603,27.110974060668944,19.6630563482666Q27.029284060668946,19.7176463482666,26.942624060668944,19.763956348266603Q26.855974060668945,19.8102763482666,26.765204060668946,19.847876348266603Q26.674424060668944,19.8854763482666,26.580404060668947,19.9139963482666Q26.486384060668946,19.9425163482666,26.390014060668946,19.961686348266603Q26.293644060668946,19.980856348266602,26.195864060668946,19.9904863482666Q26.098084060668945,20.0001163482666,25.999834060668945,20.0001163482666Q25.901584060668945,20.0001163482666,25.803804060668945,19.9904863482666Q25.706024060668945,19.980856348266602,25.609654060668944,19.961686348266603Q25.513284060668944,19.9425163482666,25.419264060668944,19.9139963482666Q25.325244060668947,19.8854763482666,25.234464060668945,19.847876348266603Q25.143694060668945,19.8102763482666,25.057044060668947,19.763956348266603Q24.970388060668945,19.7176463482666,24.888693060668945,19.6630563482666Q24.806998060668946,19.608466348266603,24.731047060668946,19.5461363482666Q24.655096060668946,19.4838063482666,24.585620060668944,19.414326348266602Q24.516145060668947,19.344856348266603,24.453813060668946,19.2689063482666Q24.391482060668945,19.192956348266602,24.336895060668944,19.1112563482666Q24.282308060668946,19.029566348266602,24.235991060668944,18.9429063482666Q24.189675060668947,18.8562563482666,24.152075060668945,18.765486348266602Q24.114475060668944,18.6747063482666,24.085953360668945,18.580686348266603Q24.057431860668945,18.486666348266603,24.038263460668944,18.390296348266602Q24.019095160668947,18.293926348266602,24.009464610668946,18.196146348266602Q23.999834060668945,18.0983663482666,23.999834060668945,18.0001163482666Q23.999834060668945,17.9018663482666,24.009464610668946,17.8040863482666Q24.019095160668947,17.7063063482666,24.038263460668944,17.6099363482666Q24.057431860668945,17.5135663482666,24.085953360668945,17.4195463482666Q24.114475060668944,17.325526348266603,24.152075060668945,17.2347463482666Q24.189675060668947,17.1439763482666,24.235991060668944,17.057326348266603Q24.282308060668946,16.9706703482666,24.336895060668944,16.8889753482666Q24.391482060668945,16.807280348266602,24.453813060668946,16.731329348266602Q24.516145060668947,16.655378348266602,24.585620060668944,16.5859023482666Q24.655096060668946,16.516427348266603,24.731047060668946,16.454095348266602Q24.806998060668946,16.3917643482666,24.888693060668945,16.3371773482666Q24.970388060668945,16.282590348266602,25.057044060668947,16.2362733482666Q25.143694060668945,16.189957348266603,25.234464060668945,16.1523573482666Q25.325244060668947,16.1147573482666,25.419264060668944,16.0862356482666Q25.513284060668944,16.0577141482666,25.609654060668944,16.0385457482666Q25.706024060668945,16.019377448266603,25.803804060668945,16.009746898266602Q25.901584060668945,16.0001163482666,25.999834060668945,16.0001163482666Q26.098084060668945,16.0001163482666,26.195864060668946,16.009746898266602Q26.293644060668946,16.019377448266603,26.390014060668946,16.0385457482666Q26.486384060668946,16.0577141482666,26.580404060668947,16.0862356482666Q26.674424060668944,16.1147573482666,26.765204060668946,16.1523573482666Q26.855974060668945,16.189957348266603,26.942624060668944,16.2362733482666Q27.029284060668946,16.282590348266602,27.110974060668944,16.3371773482666Q27.192674060668946,16.3917643482666,27.268624060668945,16.454095348266602Q27.344574060668947,16.516427348266603,27.414044060668946,16.5859023482666Q27.483524060668945,16.655378348266602,27.545854060668944,16.731329348266602Q27.608184060668947,16.807280348266602,27.662774060668944,16.8889753482666Q27.717364060668945,16.9706703482666,27.763674060668947,17.057326348266603Q27.809994060668945,17.1439763482666,27.847594060668946,17.2347463482666Q27.885194060668944,17.325526348266603,27.913714060668944,17.4195463482666Q27.942234060668945,17.5135663482666,27.961404060668947,17.6099363482666Q27.980574060668946,17.7063063482666,27.990204060668944,17.8040863482666Q27.999834060668945,17.9018663482666,27.999834060668945,18.0001163482666Z" fill="#FFFFFF" fill-opacity="1"/></g></g><g><path d="M19.04492,18L16.5000727028,11L19.706409999999998,11L22.399169999999998,18L19.70636,25L16.5000184773,25L19.04492,18Z" fill-rule="evenodd" fill="#FFFFFF" fill-opacity="1"/></g></g></svg>