<svg xmlns="http://www.w3.org/2000/svg" xmlns:xlink="http://www.w3.org/1999/xlink" fill="none" version="1.1" width="13.920478641986847" height="13.92047768831253" viewBox="0 0 13.920478641986847 13.92047768831253"><g transform="matrix(1,0,0,-1,0,27.540955364704132)"><path d="M13.477600005960465,20.026977682352065C13.725900005960465,20.275357682352066,13.825800005960465,20.635837682352065,13.740600005960465,20.976617682352067L12.609200005960464,25.502077682352066C12.519700005960464,25.860377682352066,12.239900005960465,26.140177682352068,11.881600005960465,26.229677682352065L7.356140005960465,27.361077682352068C7.015360005960464,27.44627768235207,6.6548800059604645,27.346377682352067,6.406500005960464,27.098077682352066L0.44289400596046447,21.134437682352065C0.05237380596046448,20.743917682352066,0.05236380596046447,20.110747682352066,0.44289400596046447,19.720227682352068L6.099750005960464,14.063368682352067C6.490270005960465,13.672848182352066,7.123440005960465,13.672848182352066,7.513960005960464,14.063368682352067L13.477600005960465,20.026977682352065ZM11.639100005960465,25.259577682352067L12.770500005960464,20.734077682352066L6.8068600059604645,14.770477682352066L1.1500100059604645,20.427327682352065L7.1136100059604646,26.390977682352066L11.639100005960465,25.259577682352067ZM10.342300005960464,22.902287682352068C10.635200005960465,23.195187682352064,10.635200005960465,23.670057682352066,10.342300005960464,23.96297768235207C10.049420005960464,24.255877682352065,9.574530005960465,24.255877682352065,9.281640005960465,23.96297768235207C8.988750005960464,23.670057682352066,8.988750005960464,23.195187682352064,9.281640005960465,22.902287682352068C9.574530005960465,22.609397682352068,10.049410005960464,22.609397682352068,10.342300005960464,22.902287682352068Z" fill="#333333" fill-opacity="1"/><path d="M13.583700005960464,19.920917682352066L7.620030005960465,13.957301682352066Q7.2832100059604645,13.620477682352066,6.8068600059604645,13.620477682352066Q6.330510005960464,13.620477682352066,5.993690005960464,13.957302682352067L0.3368290059604645,19.614157682352065Q-0.00000199403953551891,19.950987682352064,5.960464483090178e-9,20.427337682352068Q0.0000020059604644850904,20.90367768235207,0.33682700596046444,21.240507682352067L6.300450005960465,27.204177682352068Q6.760940005960465,27.664477682352064,7.392530005960465,27.506577682352066L11.918000005960465,26.375177682352067Q12.587500005960464,26.207977682352066,12.754700005960464,25.538477682352067L13.886100005960465,21.013007682352068Q14.044000005960465,20.381427682352065,13.583700005960464,19.920917682352066ZM6.8068600059604645,13.920477682352066Q7.158940005960464,13.920477682352066,7.407900005960465,14.169434682352065L13.371500005960465,20.133047682352064Q13.711800005960464,20.473417682352064,13.595100005960465,20.940237682352066L12.463700005960465,25.465677682352066Q12.340100005960464,25.960577682352067,11.845300005960464,26.084177682352067L7.319760005960465,27.215577682352066Q6.852930005960465,27.332277682352064,6.512550005960464,26.991977682352065L0.5489600059604645,21.028367682352066Q0.30000200596046445,20.779407682352065,0.3000000059604645,20.427327682352065Q0.29999800596046444,20.075247682352067,0.5489580059604644,19.826297682352067L6.205820005960464,14.169434682352065Q6.4547800059604645,13.920477682352066,6.8068600059604645,13.920477682352066ZM0.9378740059604644,20.427327682352065L7.067590005960464,26.557077682352066L7.149990005960465,26.536477682352064L11.762800005960464,25.383277682352066L12.936600005960464,20.688067682352067L6.806850005960465,14.558347682352066L0.9378740059604644,20.427327682352065ZM7.159620005960464,26.224877682352066L1.3621400059604645,20.427327682352065L6.8068600059604645,14.982607682352066L12.604400005960464,20.780087682352068L11.515400005960464,25.135877682352067L7.159620005960464,26.224877682352066ZM9.811970005960465,22.532627682352064Q9.439180005960464,22.532627682352064,9.175580005960464,22.796227682352068Q8.911980005960464,23.059837682352068,8.911980005960464,23.432627682352067Q8.911980005960464,23.805377682352066,9.175580005960464,24.069077682352066Q9.439180005960464,24.332677682352067,9.811970005960465,24.332677682352067Q10.184800005960465,24.332677682352067,10.448400005960465,24.069077682352066Q10.712000005960464,23.805377682352066,10.712000005960464,23.432627682352067Q10.712000005960464,23.059837682352068,10.448400005960465,22.796227682352068Q10.184800005960465,22.532627682352064,9.811970005960465,22.532627682352064ZM9.211980005960465,23.432627682352067Q9.211980005960465,23.184097682352068,9.387710005960464,23.008357682352067Q9.563440005960464,22.83262768235207,9.811970005960465,22.83262768235207Q10.060510005960465,22.83262768235207,10.236200005960464,23.008357682352067Q10.412000005960465,23.184097682352068,10.412000005960465,23.432627682352067Q10.412000005960465,23.681157682352065,10.236200005960464,23.856877682352064Q10.060500005960465,24.032677682352066,9.811970005960465,24.032677682352066Q9.563440005960464,24.032677682352066,9.387710005960464,23.856877682352064Q9.211980005960465,23.68116768235207,9.211980005960465,23.432627682352067Z" fill-rule="evenodd" fill="#333333" fill-opacity="1"/></g></svg>